<?xml version="1.0" encoding="utf-8"?>
<!-- Generator: Adobe Illustrator 23.0.1, SVG Export Plug-In . SVG Version: 6.00 Build 0)  -->
<svg version="1.1" id="Layer_1" xmlns="http://www.w3.org/2000/svg" xmlns:xlink="http://www.w3.org/1999/xlink" x="0px" y="0px"
	 viewBox="0 0 64 64" style="enable-background:new 0 0 64 64;" xml:space="preserve">
<style type="text/css">
	.st0{fill:#33414A;}
	.st1{fill:#FFFFFF;}
</style>
<title>icon</title>
<desc>Created with Sketch.</desc>
<path class="st0" d="M32,0C14.3,0,0,14.3,0,32s14.3,32,32,32s32-14.3,32-32S49.7,0,32,0z"/>
<g>
	<path class="st1" d="M21.7,48.4c-3.2,0-6.3-0.7-9-2l1-6.2c2.8,1.4,5,2.2,7.3,2.2c1.9,0,3-1,3-2.4c0-1.7-1.1-2.9-4.5-5
		c-3.2-2.1-6.4-4.7-6.4-9.2c0-5.3,3.6-8.8,9.2-8.8c3.1,0,5.2,0.5,7.3,1.5l-1,6.3c-2.3-1.3-4-1.8-5.8-1.8c-1.5,0-2.4,1-2.4,2.1
		c0,1.5,1,2.4,4.2,4.5c3.4,2.2,6.6,5,6.6,9.9C31.3,45,27.4,48.4,21.7,48.4z"/>
	<polygon class="st1" points="51.1,23.7 42.9,23.7 42.9,29.9 48.6,29.9 49.6,36.2 42.9,36.2 42.9,48.1 35.6,48.1 35.6,17.4 
		51.1,17.4 	"/>
</g>
</svg>
